G75*
G70*
%OFA0B0*%
%FSLAX24Y24*%
%IPPOS*%
%LPD*%
%AMOC8*
5,1,8,0,0,1.08239X$1,22.5*
%
%ADD10C,0.0060*%
%ADD11C,0.0040*%
%ADD12C,0.0100*%
%ADD13C,0.0020*%
D10*
X000524Y012341D02*
X001058Y012341D01*
X001058Y012661D01*
X000951Y012768D01*
X000738Y012768D01*
X000631Y012661D01*
X000631Y012341D01*
X000524Y012341D02*
X000417Y012448D01*
X000417Y012555D01*
X001058Y012985D02*
X001058Y013092D01*
X000844Y013305D01*
X000631Y013305D02*
X001058Y013305D01*
X000951Y013523D02*
X001058Y013630D01*
X001058Y013843D01*
X000951Y013950D01*
X000738Y013950D01*
X000631Y013843D01*
X000631Y013630D01*
X000738Y013523D01*
X000951Y013523D01*
X000738Y014165D02*
X000631Y014165D01*
X000631Y014272D01*
X000738Y014272D01*
X000738Y014165D01*
X001058Y014489D02*
X001058Y014596D01*
X000844Y014809D01*
X000631Y014809D02*
X001058Y014809D01*
X001058Y015027D02*
X001058Y015347D01*
X000951Y015454D01*
X000738Y015454D01*
X000631Y015347D01*
X000631Y015027D01*
X000738Y015671D02*
X000631Y015778D01*
X000631Y016098D01*
X000417Y016098D02*
X001058Y016098D01*
X001058Y015778D01*
X000951Y015671D01*
X000738Y015671D01*
X000631Y016316D02*
X000951Y016316D01*
X001058Y016422D01*
X001058Y016743D01*
X000631Y016743D01*
X000844Y016960D02*
X000844Y017387D01*
X000738Y017387D02*
X000951Y017387D01*
X001058Y017281D01*
X001058Y017067D01*
X000951Y016960D01*
X000844Y016960D01*
X000631Y017067D02*
X000631Y017281D01*
X000738Y017387D01*
X000738Y017605D02*
X000631Y017712D01*
X000631Y018032D01*
X000417Y018032D02*
X001058Y018032D01*
X001058Y017712D01*
X000951Y017605D01*
X000738Y017605D01*
X000738Y018249D02*
X000951Y018249D01*
X001058Y018356D01*
X001058Y018570D01*
X000951Y018676D01*
X000738Y018676D01*
X000631Y018570D01*
X000631Y018356D01*
X000738Y018249D01*
X001558Y023700D02*
X001558Y023807D01*
X001344Y024020D01*
X001131Y024020D02*
X001558Y024020D01*
X001451Y024238D02*
X001344Y024238D01*
X001344Y024665D01*
X001238Y024665D02*
X001451Y024665D01*
X001558Y024558D01*
X001558Y024344D01*
X001451Y024238D01*
X001131Y024344D02*
X001131Y024558D01*
X001238Y024665D01*
X001238Y024882D02*
X001558Y024882D01*
X001238Y024882D02*
X001131Y024989D01*
X001238Y025096D01*
X001131Y025202D01*
X001238Y025309D01*
X001558Y025309D01*
X001451Y025527D02*
X001558Y025633D01*
X001558Y025847D01*
X001451Y025954D01*
X001238Y025954D01*
X001131Y025847D01*
X001131Y025633D01*
X001238Y025527D01*
X001451Y025527D01*
X001451Y026171D02*
X001344Y026278D01*
X001344Y026598D01*
X001131Y026598D02*
X001771Y026598D01*
X001771Y026278D01*
X001665Y026171D01*
X001451Y026171D01*
X001131Y027460D02*
X001771Y027887D01*
X001771Y028105D02*
X001771Y028532D01*
X001771Y028318D02*
X001131Y028318D01*
X001131Y027887D02*
X001771Y027460D01*
X001558Y028749D02*
X001131Y028749D01*
X001451Y028749D02*
X001451Y029176D01*
X001558Y029176D02*
X001771Y028963D01*
X001558Y028749D01*
X001558Y029176D02*
X001131Y029176D01*
X008631Y022176D02*
X009271Y022176D01*
X009271Y021749D01*
X008951Y021963D02*
X008951Y022176D01*
X008738Y021532D02*
X008844Y021425D01*
X008844Y021105D01*
X008951Y021105D02*
X008631Y021105D01*
X008631Y021425D01*
X008738Y021532D01*
X009058Y021425D02*
X009058Y021212D01*
X008951Y021105D01*
X009058Y020887D02*
X008631Y020887D01*
X008631Y020460D02*
X008951Y020460D01*
X009058Y020567D01*
X009058Y020887D01*
X024855Y035643D02*
X024961Y035536D01*
X025282Y035536D01*
X025282Y036176D01*
X024961Y036176D01*
X024855Y036070D01*
X024855Y035643D01*
X025499Y035643D02*
X025606Y035536D01*
X025820Y035536D01*
X025926Y035643D01*
X025926Y036070D01*
X025820Y036176D01*
X025606Y036176D01*
X025499Y036070D01*
X026144Y036176D02*
X026571Y036176D01*
X026571Y035536D01*
D11*
X000621Y008824D02*
X000697Y008747D01*
X001004Y008747D01*
X000697Y009054D01*
X000621Y008978D01*
X000621Y008824D01*
X000697Y009054D02*
X001004Y009054D01*
X001081Y008978D01*
X001081Y008824D01*
X001004Y008747D01*
X000697Y009208D02*
X000621Y009208D01*
X000621Y009285D01*
X000697Y009285D01*
X000697Y009208D01*
X000621Y009438D02*
X000621Y009745D01*
X000621Y009591D02*
X001081Y009591D01*
X000928Y009745D01*
X000928Y010359D02*
X000621Y010512D01*
X000928Y010666D01*
X000851Y010819D02*
X000774Y010819D01*
X000774Y011126D01*
X000697Y011126D02*
X000851Y011126D01*
X000928Y011049D01*
X000928Y010896D01*
X000851Y010819D01*
X000621Y010896D02*
X000621Y011049D01*
X000697Y011126D01*
X000621Y011279D02*
X000774Y011433D01*
X000774Y011356D02*
X000774Y011586D01*
X000621Y011586D02*
X001081Y011586D01*
X001081Y011356D01*
X001004Y011279D01*
X000851Y011279D01*
X000774Y011356D01*
X001621Y009686D02*
X001621Y009379D01*
X001621Y009686D01*
X001621Y009533D02*
X002081Y009533D01*
X001928Y009686D01*
X002081Y009533D01*
X001621Y009533D01*
X008621Y022879D02*
X008621Y023186D01*
X008621Y023033D02*
X009081Y023033D01*
X008928Y023186D01*
X018927Y036226D02*
X018927Y036686D01*
X018774Y036686D02*
X019081Y036686D01*
X019081Y036379D02*
X018927Y036226D01*
X019509Y037226D02*
X019509Y037686D01*
X019509Y037456D02*
X019433Y037379D01*
X019279Y037379D01*
X019202Y037456D01*
X019202Y037686D01*
X019049Y037610D02*
X019049Y037456D01*
X018972Y037379D01*
X018819Y037379D01*
X018742Y037456D01*
X018742Y037533D01*
X019049Y037533D01*
X019049Y037610D02*
X018972Y037686D01*
X018819Y037686D01*
X018589Y037686D02*
X018589Y037379D01*
X018589Y037533D02*
X018435Y037379D01*
X018358Y037379D01*
X018205Y037379D02*
X018128Y037379D01*
X018051Y037456D01*
X017975Y037379D01*
X017898Y037456D01*
X017898Y037686D01*
X018051Y037686D02*
X018051Y037456D01*
X018205Y037379D02*
X018205Y037686D01*
X019663Y037226D02*
X019970Y037226D01*
X019816Y037226D02*
X019816Y037686D01*
X020583Y037686D02*
X020814Y037533D01*
X020583Y037379D01*
X020814Y037226D02*
X020814Y037686D01*
X020967Y037686D02*
X021120Y037686D01*
X021044Y037686D02*
X021044Y037226D01*
X021120Y037226D01*
X021274Y037303D02*
X021274Y037379D01*
X021351Y037456D01*
X021581Y037456D01*
X021581Y037686D02*
X021581Y037226D01*
X021351Y037226D01*
X021274Y037303D01*
X021351Y037456D02*
X021274Y037533D01*
X021274Y037610D01*
X021351Y037686D01*
X021581Y037686D01*
D12*
X027187Y037656D02*
X027554Y037289D01*
X027371Y037289D02*
X027921Y037289D01*
X027921Y037656D02*
X027921Y036555D01*
X027371Y036555D01*
X027187Y036739D01*
X027187Y037106D01*
X027371Y037289D01*
X028292Y037473D02*
X028476Y037656D01*
X028843Y037656D01*
X029026Y037473D01*
X029026Y036739D01*
X028843Y036555D01*
X028476Y036555D01*
X028292Y036739D01*
X029397Y036739D02*
X029397Y037106D01*
X029581Y037289D01*
X030131Y037289D01*
X030131Y037656D02*
X030131Y036555D01*
X029581Y036555D01*
X029397Y036739D01*
X030502Y037106D02*
X030502Y037656D01*
X030502Y037106D02*
X030686Y036922D01*
X031236Y036922D01*
X031236Y037656D01*
X031607Y037289D02*
X032341Y037289D01*
X032341Y037106D02*
X032157Y036922D01*
X031791Y036922D01*
X031607Y037106D01*
X031607Y037289D01*
X031791Y037656D02*
X032157Y037656D01*
X032341Y037473D01*
X032341Y037106D01*
X032712Y037106D02*
X032712Y037473D01*
X032895Y037656D01*
X033446Y037656D01*
X033446Y038023D02*
X033446Y036922D01*
X032895Y036922D01*
X032712Y037106D01*
X033817Y037473D02*
X033817Y036739D01*
X034000Y036555D01*
X034367Y036555D01*
X034551Y036739D01*
X034551Y037473D01*
X034367Y037656D01*
X034000Y037656D01*
X033817Y037473D01*
D13*
X006971Y037349D02*
X006971Y037436D01*
X006928Y037479D01*
X006754Y037479D01*
X006711Y037436D01*
X006711Y037349D01*
X006754Y037306D01*
X006841Y037306D01*
X006841Y037392D01*
X006928Y037306D02*
X006971Y037349D01*
X006971Y037221D02*
X006711Y037048D01*
X006971Y037048D01*
X006971Y036964D02*
X006711Y036964D01*
X006711Y036834D01*
X006754Y036790D01*
X006928Y036790D01*
X006971Y036834D01*
X006971Y036964D01*
X006971Y037221D02*
X006711Y037221D01*
X006711Y037822D02*
X006754Y037866D01*
X006928Y037866D01*
X006884Y037909D02*
X006884Y037822D01*
X006971Y038037D02*
X006711Y038037D01*
X006711Y037994D02*
X006711Y038081D01*
X006798Y038165D02*
X006798Y038339D01*
X006841Y038339D02*
X006884Y038295D01*
X006884Y038208D01*
X006841Y038165D01*
X006798Y038165D01*
X006711Y038208D02*
X006711Y038295D01*
X006754Y038339D01*
X006841Y038339D01*
X006841Y038423D02*
X006798Y038466D01*
X006798Y038596D01*
X006711Y038596D02*
X006971Y038596D01*
X006971Y038466D01*
X006928Y038423D01*
X006841Y038423D01*
X006971Y038081D02*
X006971Y038037D01*
X005971Y038037D02*
X005711Y038037D01*
X005711Y037994D02*
X005711Y038081D01*
X005798Y038165D02*
X005798Y038339D01*
X005841Y038339D02*
X005884Y038295D01*
X005884Y038208D01*
X005841Y038165D01*
X005798Y038165D01*
X005711Y038208D02*
X005711Y038295D01*
X005754Y038339D01*
X005841Y038339D01*
X005841Y038423D02*
X005798Y038466D01*
X005798Y038596D01*
X005711Y038596D02*
X005971Y038596D01*
X005971Y038466D01*
X005928Y038423D01*
X005841Y038423D01*
X005971Y038081D02*
X005971Y038037D01*
X005884Y037909D02*
X005884Y037822D01*
X005928Y037866D02*
X005754Y037866D01*
X005711Y037822D01*
X005711Y037479D02*
X005971Y037479D01*
X005971Y037349D01*
X005928Y037306D01*
X005841Y037306D01*
X005798Y037349D01*
X005798Y037479D01*
X005841Y037221D02*
X005754Y037221D01*
X005711Y037178D01*
X005711Y037091D01*
X005754Y037048D01*
X005841Y037048D01*
X005884Y037091D01*
X005884Y037178D01*
X005841Y037221D01*
X005841Y036964D02*
X005884Y036920D01*
X005884Y036790D01*
X005798Y036834D02*
X005798Y036920D01*
X005841Y036964D01*
X005711Y036964D02*
X005711Y036834D01*
X005754Y036790D01*
X005798Y036834D01*
X004884Y037091D02*
X004884Y037135D01*
X004798Y037221D01*
X004884Y037221D02*
X004711Y037221D01*
X004711Y037307D02*
X004754Y037350D01*
X004928Y037350D01*
X004884Y037393D02*
X004884Y037307D01*
X004841Y037478D02*
X004841Y037651D01*
X004711Y037651D02*
X004971Y037651D01*
X004971Y037478D02*
X004711Y037478D01*
X004711Y037993D02*
X004711Y038123D01*
X004754Y038167D01*
X004841Y038167D01*
X004884Y038123D01*
X004884Y037993D01*
X004971Y037993D02*
X004711Y037993D01*
X004711Y038252D02*
X004711Y038339D01*
X004711Y038295D02*
X004884Y038295D01*
X004884Y038339D01*
X004971Y038295D02*
X005014Y038295D01*
X004971Y038596D02*
X004711Y038596D01*
X004711Y038423D01*
X004014Y038295D02*
X003971Y038295D01*
X003884Y038295D02*
X003711Y038295D01*
X003711Y038252D02*
X003711Y038339D01*
X003711Y038423D02*
X003711Y038596D01*
X003971Y038596D01*
X003884Y038339D02*
X003884Y038295D01*
X003841Y038167D02*
X003884Y038123D01*
X003884Y037993D01*
X003971Y037993D02*
X003711Y037993D01*
X003711Y038123D01*
X003754Y038167D01*
X003841Y038167D01*
X003841Y037651D02*
X003841Y037478D01*
X003884Y037393D02*
X003884Y037307D01*
X003928Y037350D02*
X003754Y037350D01*
X003711Y037307D01*
X003711Y037221D02*
X003884Y037221D01*
X003884Y037135D02*
X003884Y037091D01*
X003884Y037135D02*
X003798Y037221D01*
X003711Y037478D02*
X003971Y037478D01*
X003971Y037651D02*
X003711Y037651D01*
X002971Y037651D02*
X002971Y037478D01*
X002971Y037393D02*
X002711Y037393D01*
X002841Y037393D02*
X002884Y037350D01*
X002884Y037263D01*
X002841Y037220D01*
X002711Y037220D01*
X002754Y037135D02*
X002841Y037135D01*
X002884Y037092D01*
X002884Y037005D01*
X002841Y036962D01*
X002798Y036962D01*
X002798Y037135D01*
X002754Y037135D02*
X002711Y037092D01*
X002711Y037005D01*
X002711Y036878D02*
X002884Y036878D01*
X002798Y036878D02*
X002884Y036791D01*
X002884Y036748D01*
X002884Y036663D02*
X002884Y036619D01*
X002841Y036576D01*
X002884Y036533D01*
X002841Y036489D01*
X002711Y036489D01*
X002711Y036576D02*
X002841Y036576D01*
X002884Y036663D02*
X002711Y036663D01*
X001884Y036663D02*
X001884Y036619D01*
X001841Y036576D01*
X001884Y036533D01*
X001841Y036489D01*
X001711Y036489D01*
X001711Y036576D02*
X001841Y036576D01*
X001884Y036663D02*
X001711Y036663D01*
X001884Y036748D02*
X001884Y036791D01*
X001798Y036878D01*
X001798Y036962D02*
X001798Y037135D01*
X001841Y037135D02*
X001884Y037092D01*
X001884Y037005D01*
X001841Y036962D01*
X001798Y036962D01*
X001711Y037005D02*
X001711Y037092D01*
X001754Y037135D01*
X001841Y037135D01*
X001841Y037220D02*
X001711Y037220D01*
X001841Y037220D02*
X001884Y037263D01*
X001884Y037350D01*
X001841Y037393D01*
X001971Y037393D02*
X001711Y037393D01*
X001711Y037564D02*
X001971Y037564D01*
X001971Y037478D02*
X001971Y037651D01*
X001971Y037993D02*
X001711Y037993D01*
X001711Y038123D01*
X001754Y038167D01*
X001841Y038167D01*
X001884Y038123D01*
X001884Y037993D01*
X001884Y038295D02*
X001711Y038295D01*
X001711Y038252D02*
X001711Y038339D01*
X001711Y038423D02*
X001711Y038596D01*
X001971Y038596D01*
X001884Y038339D02*
X001884Y038295D01*
X001971Y038295D02*
X002014Y038295D01*
X002711Y038295D02*
X002884Y038295D01*
X002884Y038339D01*
X002971Y038295D02*
X003014Y038295D01*
X002884Y038123D02*
X002884Y037993D01*
X002971Y037993D02*
X002711Y037993D01*
X002711Y038123D01*
X002754Y038167D01*
X002841Y038167D01*
X002884Y038123D01*
X002711Y038252D02*
X002711Y038339D01*
X002711Y038423D02*
X002711Y038596D01*
X002971Y038596D01*
X002971Y037564D02*
X002711Y037564D01*
X001884Y036878D02*
X001711Y036878D01*
M02*
