G75*
G70*
%OFA0B0*%
%FSLAX24Y24*%
%IPPOS*%
%LPD*%
%AMOC8*
5,1,8,0,0,1.08239X$1,22.5*
%
%ADD10R,0.0787X0.0200*%
%ADD11R,0.0787X0.0197*%
%ADD12C,0.0236*%
%ADD13R,0.0394X0.0433*%
%ADD14R,0.0236X0.0866*%
D10*
X010057Y031344D03*
X010057Y031738D03*
X010057Y032131D03*
X010057Y032525D03*
X010057Y033313D03*
X010057Y034100D03*
X010057Y034887D03*
X010057Y035281D03*
X010057Y035675D03*
X010057Y036069D03*
X017144Y036069D03*
X017144Y035281D03*
X017144Y034887D03*
X017144Y034494D03*
X017144Y034100D03*
X017144Y033706D03*
X017144Y033313D03*
X017144Y032919D03*
X017144Y032525D03*
X017144Y032131D03*
X017144Y031344D03*
D11*
X017142Y030950D03*
X017142Y031738D03*
X017142Y035675D03*
X017142Y036462D03*
X010059Y036462D03*
X010059Y034494D03*
X010059Y033706D03*
X010059Y032919D03*
X010059Y030950D03*
D12*
X011435Y031344D03*
X011435Y032131D03*
X012223Y032131D03*
X012223Y031344D03*
X013010Y031344D03*
X013010Y032131D03*
X013010Y032919D03*
X012223Y032919D03*
X011435Y032919D03*
X011435Y034494D03*
X011435Y035281D03*
X011435Y036069D03*
X012223Y036069D03*
X013010Y036069D03*
X013010Y035281D03*
X012223Y035281D03*
X012223Y034494D03*
X013010Y034494D03*
X014191Y034494D03*
X014191Y035281D03*
X014979Y035281D03*
X015766Y035281D03*
X015766Y034494D03*
X014979Y034494D03*
X014979Y033706D03*
X014979Y032919D03*
X015766Y032919D03*
X015766Y033706D03*
X015766Y032131D03*
X014979Y032131D03*
X014191Y032131D03*
X014191Y032919D03*
X014191Y033706D03*
D13*
X018666Y032806D03*
X019335Y032806D03*
X019335Y031706D03*
X018666Y031706D03*
X015635Y027306D03*
X014966Y027306D03*
X014966Y026206D03*
X015635Y026206D03*
X015635Y025106D03*
X014966Y025106D03*
X014966Y024006D03*
X015635Y024006D03*
D14*
X016051Y013383D03*
X016551Y013383D03*
X017051Y013383D03*
X017551Y013383D03*
X017551Y015430D03*
X017051Y015430D03*
X016551Y015430D03*
X016051Y015430D03*
M02*
