G75*
G70*
%OFA0B0*%
%FSLAX24Y24*%
%IPPOS*%
%LPD*%
%AMOC8*
5,1,8,0,0,1.08239X$1,22.5*
%
%ADD10C,0.0000*%
%ADD11C,0.0600*%
%ADD12R,0.0594X0.0594*%
%ADD13OC8,0.0600*%
%ADD14R,0.0827X0.0827*%
%ADD15C,0.0594*%
%ADD16OC8,0.0520*%
%ADD17R,0.4724X0.0200*%
%ADD18R,0.0787X0.0200*%
%ADD19R,0.1575X0.0200*%
%ADD20R,0.2362X0.4331*%
%ADD21R,0.3268X0.0256*%
%ADD22R,0.2362X0.2559*%
%ADD23R,0.2953X0.0394*%
%ADD24R,0.0394X0.0433*%
%ADD25C,0.1000*%
%ADD26OC8,0.1000*%
%ADD27OC8,0.0660*%
%ADD28R,0.0236X0.0866*%
%ADD29C,0.0660*%
%ADD30C,0.0100*%
%ADD31C,0.0886*%
%ADD32C,0.0240*%
%ADD33C,0.0300*%
%ADD34C,0.0400*%
%ADD35C,0.0400*%
%ADD36OC8,0.0396*%
%ADD37C,0.1000*%
%ADD38C,0.0150*%
D10*
X000101Y007206D02*
X000101Y038702D01*
X035471Y038702D01*
X035471Y007206D01*
X000101Y007206D01*
X004911Y008261D02*
X004913Y008309D01*
X004919Y008357D01*
X004929Y008404D01*
X004942Y008450D01*
X004960Y008495D01*
X004980Y008539D01*
X005005Y008581D01*
X005033Y008620D01*
X005063Y008657D01*
X005097Y008691D01*
X005134Y008723D01*
X005172Y008752D01*
X005213Y008777D01*
X005256Y008799D01*
X005301Y008817D01*
X005347Y008831D01*
X005394Y008842D01*
X005442Y008849D01*
X005490Y008852D01*
X005538Y008851D01*
X005586Y008846D01*
X005634Y008837D01*
X005680Y008825D01*
X005725Y008808D01*
X005769Y008788D01*
X005811Y008765D01*
X005851Y008738D01*
X005889Y008708D01*
X005924Y008675D01*
X005956Y008639D01*
X005986Y008601D01*
X006012Y008560D01*
X006034Y008517D01*
X006054Y008473D01*
X006069Y008428D01*
X006081Y008381D01*
X006089Y008333D01*
X006093Y008285D01*
X006093Y008237D01*
X006089Y008189D01*
X006081Y008141D01*
X006069Y008094D01*
X006054Y008049D01*
X006034Y008005D01*
X006012Y007962D01*
X005986Y007921D01*
X005956Y007883D01*
X005924Y007847D01*
X005889Y007814D01*
X005851Y007784D01*
X005811Y007757D01*
X005769Y007734D01*
X005725Y007714D01*
X005680Y007697D01*
X005634Y007685D01*
X005586Y007676D01*
X005538Y007671D01*
X005490Y007670D01*
X005442Y007673D01*
X005394Y007680D01*
X005347Y007691D01*
X005301Y007705D01*
X005256Y007723D01*
X005213Y007745D01*
X005172Y007770D01*
X005134Y007799D01*
X005097Y007831D01*
X005063Y007865D01*
X005033Y007902D01*
X005005Y007941D01*
X004980Y007983D01*
X004960Y008027D01*
X004942Y008072D01*
X004929Y008118D01*
X004919Y008165D01*
X004913Y008213D01*
X004911Y008261D01*
X012989Y008910D02*
X012991Y008960D01*
X012997Y009010D01*
X013007Y009059D01*
X013021Y009107D01*
X013038Y009154D01*
X013059Y009199D01*
X013084Y009243D01*
X013112Y009284D01*
X013144Y009323D01*
X013178Y009360D01*
X013215Y009394D01*
X013255Y009424D01*
X013297Y009451D01*
X013341Y009475D01*
X013387Y009496D01*
X013434Y009512D01*
X013482Y009525D01*
X013532Y009534D01*
X013581Y009539D01*
X013632Y009540D01*
X013682Y009537D01*
X013731Y009530D01*
X013780Y009519D01*
X013828Y009504D01*
X013874Y009486D01*
X013919Y009464D01*
X013962Y009438D01*
X014003Y009409D01*
X014042Y009377D01*
X014078Y009342D01*
X014110Y009304D01*
X014140Y009264D01*
X014167Y009221D01*
X014190Y009177D01*
X014209Y009131D01*
X014225Y009083D01*
X014237Y009034D01*
X014245Y008985D01*
X014249Y008935D01*
X014249Y008885D01*
X014245Y008835D01*
X014237Y008786D01*
X014225Y008737D01*
X014209Y008689D01*
X014190Y008643D01*
X014167Y008599D01*
X014140Y008556D01*
X014110Y008516D01*
X014078Y008478D01*
X014042Y008443D01*
X014003Y008411D01*
X013962Y008382D01*
X013919Y008356D01*
X013874Y008334D01*
X013828Y008316D01*
X013780Y008301D01*
X013731Y008290D01*
X013682Y008283D01*
X013632Y008280D01*
X013581Y008281D01*
X013532Y008286D01*
X013482Y008295D01*
X013434Y008308D01*
X013387Y008324D01*
X013341Y008345D01*
X013297Y008369D01*
X013255Y008396D01*
X013215Y008426D01*
X013178Y008460D01*
X013144Y008497D01*
X013112Y008536D01*
X013084Y008577D01*
X013059Y008621D01*
X013038Y008666D01*
X013021Y008713D01*
X013007Y008761D01*
X012997Y008810D01*
X012991Y008860D01*
X012989Y008910D01*
X000471Y020206D02*
X000473Y020256D01*
X000479Y020306D01*
X000489Y020355D01*
X000503Y020403D01*
X000520Y020450D01*
X000541Y020495D01*
X000566Y020539D01*
X000594Y020580D01*
X000626Y020619D01*
X000660Y020656D01*
X000697Y020690D01*
X000737Y020720D01*
X000779Y020747D01*
X000823Y020771D01*
X000869Y020792D01*
X000916Y020808D01*
X000964Y020821D01*
X001014Y020830D01*
X001063Y020835D01*
X001114Y020836D01*
X001164Y020833D01*
X001213Y020826D01*
X001262Y020815D01*
X001310Y020800D01*
X001356Y020782D01*
X001401Y020760D01*
X001444Y020734D01*
X001485Y020705D01*
X001524Y020673D01*
X001560Y020638D01*
X001592Y020600D01*
X001622Y020560D01*
X001649Y020517D01*
X001672Y020473D01*
X001691Y020427D01*
X001707Y020379D01*
X001719Y020330D01*
X001727Y020281D01*
X001731Y020231D01*
X001731Y020181D01*
X001727Y020131D01*
X001719Y020082D01*
X001707Y020033D01*
X001691Y019985D01*
X001672Y019939D01*
X001649Y019895D01*
X001622Y019852D01*
X001592Y019812D01*
X001560Y019774D01*
X001524Y019739D01*
X001485Y019707D01*
X001444Y019678D01*
X001401Y019652D01*
X001356Y019630D01*
X001310Y019612D01*
X001262Y019597D01*
X001213Y019586D01*
X001164Y019579D01*
X001114Y019576D01*
X001063Y019577D01*
X001014Y019582D01*
X000964Y019591D01*
X000916Y019604D01*
X000869Y019620D01*
X000823Y019641D01*
X000779Y019665D01*
X000737Y019692D01*
X000697Y019722D01*
X000660Y019756D01*
X000626Y019793D01*
X000594Y019832D01*
X000566Y019873D01*
X000541Y019917D01*
X000520Y019962D01*
X000503Y020009D01*
X000489Y020057D01*
X000479Y020106D01*
X000473Y020156D01*
X000471Y020206D01*
X004911Y030151D02*
X004913Y030199D01*
X004919Y030247D01*
X004929Y030294D01*
X004942Y030340D01*
X004960Y030385D01*
X004980Y030429D01*
X005005Y030471D01*
X005033Y030510D01*
X005063Y030547D01*
X005097Y030581D01*
X005134Y030613D01*
X005172Y030642D01*
X005213Y030667D01*
X005256Y030689D01*
X005301Y030707D01*
X005347Y030721D01*
X005394Y030732D01*
X005442Y030739D01*
X005490Y030742D01*
X005538Y030741D01*
X005586Y030736D01*
X005634Y030727D01*
X005680Y030715D01*
X005725Y030698D01*
X005769Y030678D01*
X005811Y030655D01*
X005851Y030628D01*
X005889Y030598D01*
X005924Y030565D01*
X005956Y030529D01*
X005986Y030491D01*
X006012Y030450D01*
X006034Y030407D01*
X006054Y030363D01*
X006069Y030318D01*
X006081Y030271D01*
X006089Y030223D01*
X006093Y030175D01*
X006093Y030127D01*
X006089Y030079D01*
X006081Y030031D01*
X006069Y029984D01*
X006054Y029939D01*
X006034Y029895D01*
X006012Y029852D01*
X005986Y029811D01*
X005956Y029773D01*
X005924Y029737D01*
X005889Y029704D01*
X005851Y029674D01*
X005811Y029647D01*
X005769Y029624D01*
X005725Y029604D01*
X005680Y029587D01*
X005634Y029575D01*
X005586Y029566D01*
X005538Y029561D01*
X005490Y029560D01*
X005442Y029563D01*
X005394Y029570D01*
X005347Y029581D01*
X005301Y029595D01*
X005256Y029613D01*
X005213Y029635D01*
X005172Y029660D01*
X005134Y029689D01*
X005097Y029721D01*
X005063Y029755D01*
X005033Y029792D01*
X005005Y029831D01*
X004980Y029873D01*
X004960Y029917D01*
X004942Y029962D01*
X004929Y030008D01*
X004919Y030055D01*
X004913Y030103D01*
X004911Y030151D01*
X029989Y028910D02*
X029991Y028960D01*
X029997Y029010D01*
X030007Y029059D01*
X030021Y029107D01*
X030038Y029154D01*
X030059Y029199D01*
X030084Y029243D01*
X030112Y029284D01*
X030144Y029323D01*
X030178Y029360D01*
X030215Y029394D01*
X030255Y029424D01*
X030297Y029451D01*
X030341Y029475D01*
X030387Y029496D01*
X030434Y029512D01*
X030482Y029525D01*
X030532Y029534D01*
X030581Y029539D01*
X030632Y029540D01*
X030682Y029537D01*
X030731Y029530D01*
X030780Y029519D01*
X030828Y029504D01*
X030874Y029486D01*
X030919Y029464D01*
X030962Y029438D01*
X031003Y029409D01*
X031042Y029377D01*
X031078Y029342D01*
X031110Y029304D01*
X031140Y029264D01*
X031167Y029221D01*
X031190Y029177D01*
X031209Y029131D01*
X031225Y029083D01*
X031237Y029034D01*
X031245Y028985D01*
X031249Y028935D01*
X031249Y028885D01*
X031245Y028835D01*
X031237Y028786D01*
X031225Y028737D01*
X031209Y028689D01*
X031190Y028643D01*
X031167Y028599D01*
X031140Y028556D01*
X031110Y028516D01*
X031078Y028478D01*
X031042Y028443D01*
X031003Y028411D01*
X030962Y028382D01*
X030919Y028356D01*
X030874Y028334D01*
X030828Y028316D01*
X030780Y028301D01*
X030731Y028290D01*
X030682Y028283D01*
X030632Y028280D01*
X030581Y028281D01*
X030532Y028286D01*
X030482Y028295D01*
X030434Y028308D01*
X030387Y028324D01*
X030341Y028345D01*
X030297Y028369D01*
X030255Y028396D01*
X030215Y028426D01*
X030178Y028460D01*
X030144Y028497D01*
X030112Y028536D01*
X030084Y028577D01*
X030059Y028621D01*
X030038Y028666D01*
X030021Y028713D01*
X030007Y028761D01*
X029997Y028810D01*
X029991Y028860D01*
X029989Y028910D01*
X031989Y008410D02*
X031991Y008460D01*
X031997Y008510D01*
X032007Y008559D01*
X032021Y008607D01*
X032038Y008654D01*
X032059Y008699D01*
X032084Y008743D01*
X032112Y008784D01*
X032144Y008823D01*
X032178Y008860D01*
X032215Y008894D01*
X032255Y008924D01*
X032297Y008951D01*
X032341Y008975D01*
X032387Y008996D01*
X032434Y009012D01*
X032482Y009025D01*
X032532Y009034D01*
X032581Y009039D01*
X032632Y009040D01*
X032682Y009037D01*
X032731Y009030D01*
X032780Y009019D01*
X032828Y009004D01*
X032874Y008986D01*
X032919Y008964D01*
X032962Y008938D01*
X033003Y008909D01*
X033042Y008877D01*
X033078Y008842D01*
X033110Y008804D01*
X033140Y008764D01*
X033167Y008721D01*
X033190Y008677D01*
X033209Y008631D01*
X033225Y008583D01*
X033237Y008534D01*
X033245Y008485D01*
X033249Y008435D01*
X033249Y008385D01*
X033245Y008335D01*
X033237Y008286D01*
X033225Y008237D01*
X033209Y008189D01*
X033190Y008143D01*
X033167Y008099D01*
X033140Y008056D01*
X033110Y008016D01*
X033078Y007978D01*
X033042Y007943D01*
X033003Y007911D01*
X032962Y007882D01*
X032919Y007856D01*
X032874Y007834D01*
X032828Y007816D01*
X032780Y007801D01*
X032731Y007790D01*
X032682Y007783D01*
X032632Y007780D01*
X032581Y007781D01*
X032532Y007786D01*
X032482Y007795D01*
X032434Y007808D01*
X032387Y007824D01*
X032341Y007845D01*
X032297Y007869D01*
X032255Y007896D01*
X032215Y007926D01*
X032178Y007960D01*
X032144Y007997D01*
X032112Y008036D01*
X032084Y008077D01*
X032059Y008121D01*
X032038Y008166D01*
X032021Y008213D01*
X032007Y008261D01*
X031997Y008310D01*
X031991Y008360D01*
X031989Y008410D01*
D11*
X032401Y033906D02*
X032401Y034506D01*
X033401Y034506D02*
X033401Y033906D01*
X034401Y033906D02*
X034401Y034506D01*
X031401Y034506D02*
X031401Y033906D01*
X030401Y033906D02*
X030401Y034506D01*
X029401Y034506D02*
X029401Y033906D01*
X028401Y033906D02*
X028401Y034506D01*
X027401Y034506D02*
X027401Y033906D01*
X026401Y033906D02*
X026401Y034506D01*
X025401Y034506D02*
X025401Y033906D01*
X024401Y033906D02*
X024401Y034506D01*
X023401Y034506D02*
X023401Y033906D01*
X022401Y033906D02*
X022401Y034506D01*
X021401Y034506D02*
X021401Y033906D01*
X020401Y033906D02*
X020401Y034506D01*
X019401Y034506D02*
X019401Y033906D01*
X006801Y035306D02*
X006801Y035906D01*
X005801Y035906D02*
X005801Y035306D01*
X004801Y035306D02*
X004801Y035906D01*
X003801Y035906D02*
X003801Y035306D01*
X002801Y035306D02*
X002801Y035906D01*
X001801Y035906D02*
X001801Y035306D01*
D12*
X021301Y031106D03*
X027501Y031106D03*
X027501Y009106D03*
X021301Y009106D03*
D13*
X008101Y010106D03*
X008101Y016106D03*
D14*
X005683Y016726D03*
X005683Y015072D03*
X005683Y013419D03*
X005683Y011765D03*
X005683Y010112D03*
X003518Y010112D03*
X003518Y011765D03*
X003518Y013419D03*
X003518Y015072D03*
X003518Y016726D03*
X003518Y018380D03*
X003518Y020033D03*
X003518Y021687D03*
X003518Y023340D03*
X003518Y024994D03*
X003518Y026647D03*
X003518Y028301D03*
X005683Y028301D03*
X005683Y026647D03*
X005683Y024994D03*
X005683Y023340D03*
X005683Y021687D03*
X005683Y020033D03*
X005683Y018380D03*
D15*
X010404Y020906D02*
X010998Y020906D01*
X010998Y021906D02*
X010404Y021906D01*
X010404Y022906D02*
X010998Y022906D01*
X022401Y036409D02*
X022401Y037003D01*
X023401Y037003D02*
X023401Y036409D01*
D16*
X017801Y021206D03*
X015601Y021206D03*
X015601Y017206D03*
X017801Y017206D03*
X011001Y015806D03*
X011001Y010806D03*
D17*
X012026Y030950D03*
X015176Y030950D03*
X015176Y036462D03*
X012026Y036462D03*
D18*
X010057Y036069D03*
X010057Y035675D03*
X010057Y035281D03*
X010057Y034887D03*
X010057Y034100D03*
X010057Y033313D03*
X010057Y032525D03*
X010057Y032131D03*
X010057Y031738D03*
X010057Y031344D03*
X017144Y031344D03*
X017144Y032131D03*
X017144Y032525D03*
X017144Y032919D03*
X017144Y033313D03*
X017144Y033706D03*
X017144Y034100D03*
X017144Y034494D03*
X017144Y034887D03*
X017144Y035281D03*
X017144Y036069D03*
D19*
X016750Y035675D03*
X016750Y031738D03*
X010451Y032919D03*
X010451Y033706D03*
X010451Y034494D03*
D20*
X014979Y033706D03*
D21*
X012363Y033706D03*
D22*
X012223Y032033D03*
X012223Y035380D03*
D23*
X014685Y036462D03*
X014685Y030950D03*
D24*
X014966Y027306D03*
X015635Y027306D03*
X015635Y026206D03*
X014966Y026206D03*
X014966Y025106D03*
X015635Y025106D03*
X015635Y024006D03*
X014966Y024006D03*
X018666Y031706D03*
X019335Y031706D03*
X019335Y032806D03*
X018666Y032806D03*
D25*
X008901Y027106D03*
X031501Y013606D03*
D26*
X033501Y013606D03*
X010901Y027106D03*
D27*
X013601Y026856D03*
X013601Y027856D03*
X013601Y025856D03*
X013601Y024856D03*
X013601Y023856D03*
X013601Y022856D03*
X013601Y021856D03*
X013601Y020856D03*
X013601Y019306D03*
X013601Y018306D03*
X013601Y017306D03*
X013601Y016306D03*
X013601Y015306D03*
X013601Y014306D03*
X013601Y013306D03*
X013601Y012306D03*
X032601Y015906D03*
X032601Y016906D03*
X032601Y017906D03*
X032601Y018906D03*
X032601Y019906D03*
X032601Y020906D03*
X032601Y022906D03*
X032601Y023906D03*
X032601Y024906D03*
X032601Y025906D03*
X032601Y026906D03*
X032601Y027906D03*
D28*
X017551Y015430D03*
X017051Y015430D03*
X016551Y015430D03*
X016051Y015430D03*
X016051Y013383D03*
X016551Y013383D03*
X017051Y013383D03*
X017551Y013383D03*
D29*
X003231Y031206D02*
X002571Y031206D01*
X002571Y032206D02*
X003231Y032206D01*
X003231Y033206D02*
X002571Y033206D01*
D30*
X008101Y033222D02*
X009401Y033222D01*
X009401Y033320D02*
X008101Y033320D01*
X008101Y033419D02*
X009401Y033419D01*
X009401Y033517D02*
X008101Y033517D01*
X008101Y033616D02*
X009401Y033616D01*
X009401Y033714D02*
X008101Y033714D01*
X008101Y033813D02*
X009401Y033813D01*
X009401Y033912D02*
X008101Y033912D01*
X008101Y034010D02*
X009401Y034010D01*
X009401Y034109D02*
X008101Y034109D01*
X008101Y034206D02*
X008101Y032906D01*
X009401Y031706D01*
X009401Y035506D01*
X008101Y034206D01*
X008102Y034207D02*
X009401Y034207D01*
X009401Y034306D02*
X008200Y034306D01*
X008299Y034404D02*
X009401Y034404D01*
X009401Y034503D02*
X008397Y034503D01*
X008496Y034601D02*
X009401Y034601D01*
X009401Y034700D02*
X008594Y034700D01*
X008693Y034798D02*
X009401Y034798D01*
X009401Y034897D02*
X008791Y034897D01*
X008890Y034996D02*
X009401Y034996D01*
X009401Y035094D02*
X008989Y035094D01*
X009087Y035193D02*
X009401Y035193D01*
X009401Y035291D02*
X009186Y035291D01*
X009284Y035390D02*
X009401Y035390D01*
X009401Y035488D02*
X009383Y035488D01*
X010451Y034494D02*
X010464Y034506D01*
X012101Y034506D01*
X012201Y034606D01*
X012201Y035406D01*
X011337Y032919D02*
X010451Y032919D01*
X011337Y032919D02*
X012223Y032033D01*
X009401Y032039D02*
X009040Y032039D01*
X009147Y031941D02*
X009401Y031941D01*
X009401Y031842D02*
X009254Y031842D01*
X009360Y031744D02*
X009401Y031744D01*
X009401Y032138D02*
X008933Y032138D01*
X008827Y032236D02*
X009401Y032236D01*
X009401Y032335D02*
X008720Y032335D01*
X008613Y032433D02*
X009401Y032433D01*
X009401Y032532D02*
X008506Y032532D01*
X008400Y032630D02*
X009401Y032630D01*
X009401Y032729D02*
X008293Y032729D01*
X008186Y032828D02*
X009401Y032828D01*
X009401Y032926D02*
X008101Y032926D01*
X008101Y033025D02*
X009401Y033025D01*
X009401Y033123D02*
X008101Y033123D01*
D31*
X008801Y033106D03*
X008801Y034206D03*
X010701Y029206D03*
D32*
X010057Y031738D02*
X009469Y031738D01*
X009001Y032206D01*
X009001Y032906D01*
X008801Y033106D01*
X009020Y032525D02*
X009001Y032506D01*
X009376Y032131D01*
X010057Y032131D01*
X010057Y032525D02*
X009020Y032525D01*
X010451Y033706D02*
X012363Y033706D01*
X014979Y033706D01*
X014979Y033328D01*
X015101Y033206D01*
X014801Y032906D02*
X014801Y032706D01*
X015501Y032006D01*
X015769Y031738D01*
X015101Y034706D02*
X015101Y035206D01*
X015101Y035606D01*
X015169Y035675D01*
X010057Y035675D02*
X009669Y035675D01*
X009276Y035281D01*
X009201Y035206D01*
X009201Y034806D01*
X009282Y034887D01*
X010057Y034887D01*
X010057Y035281D02*
X009276Y035281D01*
D33*
X014979Y033706D02*
X015201Y035706D01*
X016701Y035706D01*
X016750Y035675D01*
X019335Y032806D02*
X019501Y032906D01*
X020401Y033806D01*
X020401Y034206D01*
X020501Y034306D01*
X020501Y038106D01*
X029601Y038106D01*
X033001Y034706D01*
X033001Y034606D01*
X033401Y034206D01*
X033201Y034006D01*
X033201Y018506D01*
X032601Y017906D01*
X019101Y031406D02*
X019301Y031606D01*
X019335Y031706D01*
X019401Y031706D01*
X019401Y032806D01*
X019335Y032806D01*
X019101Y031406D02*
X019101Y020806D01*
X017901Y019606D01*
X017901Y017306D01*
X017801Y017206D01*
X017601Y017106D01*
X017601Y015506D01*
X017551Y015430D01*
X017601Y015406D01*
X017601Y013406D01*
X017551Y013383D01*
X016551Y015430D02*
X016501Y015506D01*
X016101Y015506D01*
X016051Y015430D01*
X016001Y015506D01*
X015601Y015506D01*
X015601Y017206D02*
X017801Y017206D01*
X008101Y010106D02*
X005701Y010106D01*
X005683Y010112D01*
X005601Y010206D01*
X003701Y010206D01*
X003518Y010112D01*
X003601Y010206D01*
X003601Y011706D01*
X003518Y011765D01*
X015801Y031706D02*
X016701Y031706D01*
X016750Y031738D01*
D34*
X018101Y031606D03*
X018501Y031206D03*
X018601Y032306D03*
X017901Y034706D03*
X012701Y030106D03*
X014301Y027306D03*
X014901Y026706D03*
X019801Y027806D03*
X019801Y028706D03*
X023901Y028106D03*
X019801Y023006D03*
X019801Y022206D03*
X018701Y019706D03*
X015601Y015506D03*
X030901Y022206D03*
X031401Y021706D03*
X032201Y031806D03*
X008501Y037406D03*
X006001Y034406D03*
D35*
X003901Y035506D02*
X003901Y033006D01*
X003101Y032206D01*
X002901Y032206D01*
X003901Y035506D02*
X003801Y035606D01*
X010701Y029206D02*
X010701Y029006D01*
X009201Y027506D02*
X008901Y027106D01*
X009201Y026706D01*
X009201Y021906D01*
X010701Y021906D01*
X005683Y023340D02*
X005701Y023406D01*
X005701Y024706D01*
X005683Y024994D01*
X005701Y025306D01*
X005701Y026606D01*
X005683Y026647D01*
X005701Y025106D02*
X005683Y024994D01*
X005701Y024906D01*
X005683Y023340D02*
X005601Y023206D01*
X004501Y022106D01*
X004501Y019406D01*
X003601Y018506D01*
X003518Y018380D01*
X003601Y018306D01*
X004301Y017606D01*
X004301Y015806D01*
X006201Y015806D01*
X006401Y015606D01*
X006401Y015506D01*
X008801Y015506D01*
X014901Y009406D01*
X014901Y009206D01*
X021201Y009206D01*
X021301Y009106D01*
X027501Y009106D01*
X031501Y013606D02*
X031501Y019806D01*
X032001Y020306D01*
X031901Y020406D01*
X031901Y022706D01*
X029301Y022706D01*
X023901Y028106D01*
X032001Y020306D02*
X032601Y020906D01*
X015801Y031706D02*
X014979Y033706D01*
X015401Y032506D01*
X015501Y032006D02*
X014979Y033706D01*
X015101Y035206D01*
X004301Y015806D02*
X003601Y015106D01*
X003518Y015072D01*
D36*
X014601Y032506D03*
X015401Y032506D03*
X015401Y033306D03*
X014601Y033306D03*
X014601Y034106D03*
X014601Y034806D03*
X014601Y034806D03*
X015401Y034806D03*
X015401Y034106D03*
D37*
X015176Y036462D02*
X015101Y036506D01*
X014701Y036506D01*
X014685Y036462D01*
X014201Y036506D01*
X012501Y036506D01*
X012223Y035380D01*
X012201Y035406D01*
X012201Y036006D01*
X012026Y036462D01*
X011701Y036806D01*
X009401Y036806D01*
X009201Y036606D01*
X008301Y036606D01*
X007901Y036706D01*
X006801Y035606D01*
X006001Y034406D02*
X007401Y033006D01*
X007401Y032706D01*
X009101Y031006D01*
X009401Y030606D01*
X011601Y030606D01*
X011601Y030706D01*
X012026Y030950D01*
X012201Y031406D01*
X012201Y032006D01*
X012223Y032033D01*
X012501Y030906D01*
X014201Y030906D01*
X014685Y030950D01*
X014701Y030906D01*
X015101Y030906D01*
X015176Y030950D01*
X010701Y029006D02*
X010051Y028356D01*
X005751Y032656D01*
X004201Y031106D01*
X004201Y030906D01*
X004101Y030806D01*
X004101Y030706D01*
X002501Y029106D01*
X002501Y027506D01*
X003101Y026906D01*
X003518Y026647D01*
X003901Y027006D01*
X003601Y026606D02*
X003518Y026647D01*
X003601Y026606D02*
X003601Y025006D01*
X003518Y024994D01*
X009201Y027506D02*
X010051Y028356D01*
X005751Y032656D02*
X004901Y033506D01*
X004901Y035506D01*
X004801Y035606D01*
D38*
X003301Y035106D02*
X003301Y036106D01*
X004601Y037406D01*
X008501Y037406D01*
X003301Y035106D02*
X002001Y033806D01*
X002001Y031206D01*
X002901Y031206D01*
X005101Y027806D02*
X005101Y027306D01*
X005151Y027256D01*
X004301Y026406D01*
X004301Y024706D01*
X003901Y024306D01*
X002601Y024306D01*
X001701Y025206D01*
X001701Y035506D01*
X001801Y035606D01*
X005201Y027306D02*
X005151Y027256D01*
X005201Y027306D02*
X006101Y027306D01*
X006301Y027106D01*
X006301Y017806D01*
X013101Y017806D01*
X013101Y012806D01*
X013801Y012806D01*
X013901Y012706D01*
X021401Y012706D01*
X030901Y022206D01*
X031401Y021706D02*
X028001Y018306D01*
X028001Y008706D01*
X027001Y007706D01*
X008601Y007706D01*
X008601Y011606D01*
X005801Y014406D01*
X002901Y014406D01*
X002901Y021006D01*
X003501Y021606D01*
X003518Y021687D01*
X003601Y021706D01*
X004101Y022206D01*
X004101Y024006D01*
X003101Y024006D01*
X012701Y030106D02*
X014101Y028706D01*
X014101Y027506D01*
X014301Y027306D01*
X014901Y027306D02*
X014966Y027306D01*
X014901Y027306D02*
X013601Y026006D01*
X013601Y025856D01*
X014001Y025506D02*
X014001Y025306D01*
X013601Y024906D01*
X013601Y024856D01*
X014001Y025506D02*
X014901Y025506D01*
X015601Y026206D01*
X015635Y026206D01*
X014966Y026206D02*
X014901Y026206D01*
X014901Y026706D01*
X015635Y027306D02*
X015701Y027306D01*
X017701Y029306D01*
X017701Y032306D01*
X017501Y032506D01*
X017201Y032506D01*
X017144Y032525D01*
X017201Y032906D02*
X017144Y032919D01*
X017201Y032906D02*
X017501Y032906D01*
X018001Y032406D01*
X018001Y032306D01*
X018601Y031706D01*
X018666Y031706D01*
X018501Y031206D02*
X018501Y026806D01*
X015701Y024006D01*
X015635Y024006D01*
X014966Y024006D02*
X014901Y024006D01*
X014101Y023206D01*
X014101Y018806D01*
X013601Y018306D01*
X013801Y017806D02*
X013101Y017806D01*
X013801Y017806D02*
X014401Y018406D01*
X014401Y020006D01*
X015601Y021206D01*
X017801Y021206D02*
X015101Y018506D01*
X015101Y016706D01*
X016101Y016706D01*
X016901Y015906D01*
X016901Y015606D01*
X017001Y015506D01*
X017051Y015430D01*
X015601Y015106D02*
X016901Y013806D01*
X016901Y013506D01*
X017001Y013406D01*
X017051Y013383D01*
X016551Y013383D02*
X016501Y013406D01*
X016401Y013506D01*
X016401Y013806D01*
X015401Y014806D01*
X013601Y014806D01*
X013601Y015306D01*
X014101Y015106D02*
X014101Y016806D01*
X013601Y017306D01*
X014101Y015106D02*
X015601Y015106D01*
X016001Y013406D02*
X014101Y013406D01*
X014101Y013806D01*
X013601Y014306D01*
X016001Y013406D02*
X016051Y013383D01*
X018701Y019706D02*
X018901Y019706D01*
X023501Y024306D01*
X023501Y028306D01*
X029401Y034206D01*
X029901Y035006D02*
X029901Y031206D01*
X031801Y029306D01*
X031801Y025706D01*
X032601Y024906D01*
X032601Y025906D02*
X032101Y026406D01*
X032101Y031706D01*
X032201Y031806D01*
X032601Y032006D02*
X032601Y027906D01*
X032601Y032006D02*
X030401Y034206D01*
X030601Y035006D02*
X029901Y035006D01*
X030601Y035006D02*
X031401Y034206D01*
X024401Y034206D02*
X023201Y033006D01*
X023201Y025606D01*
X019801Y022206D01*
X019801Y023006D02*
X022901Y026106D01*
X022901Y036206D01*
X022401Y036706D01*
X022401Y034206D02*
X020201Y032006D01*
X020201Y028206D01*
X019801Y027806D01*
X019801Y028706D02*
X019801Y032606D01*
X021401Y034206D01*
X018666Y032806D02*
X018601Y032806D01*
X018001Y033406D01*
X018001Y034006D01*
X017601Y034406D01*
X017201Y034406D01*
X017144Y034494D01*
X017201Y034806D02*
X017144Y034887D01*
X017201Y034806D02*
X017601Y034806D01*
X017701Y034706D01*
X017901Y034706D01*
X017501Y033706D02*
X017144Y033706D01*
X017501Y033706D02*
X017701Y033506D01*
X017701Y033106D01*
X018401Y032406D01*
X018401Y032306D01*
X018601Y032306D01*
X018101Y031606D02*
X018101Y027506D01*
X015701Y025106D01*
X015635Y025106D01*
X014966Y025106D02*
X014901Y025106D01*
X013601Y023806D01*
X013601Y023856D01*
M02*
