G75*
G70*
%OFA0B0*%
%FSLAX24Y24*%
%IPPOS*%
%LPD*%
%AMOC8*
5,1,8,0,0,1.08239X$1,22.5*
%
%ADD10C,0.1340*%
%ADD11C,0.0680*%
%ADD12R,0.0674X0.0674*%
%ADD13OC8,0.0680*%
%ADD14R,0.0907X0.0907*%
%ADD15C,0.1261*%
%ADD16C,0.0674*%
%ADD17OC8,0.0600*%
%ADD18C,0.1080*%
%ADD19OC8,0.1080*%
%ADD20OC8,0.0740*%
%ADD21C,0.0740*%
%ADD22C,0.0966*%
%ADD23C,0.0480*%
%ADD24OC8,0.0476*%
D10*
X013619Y008910D03*
X001101Y020206D03*
X030619Y028910D03*
X032619Y008410D03*
D11*
X032401Y033906D02*
X032401Y034506D01*
X033401Y034506D02*
X033401Y033906D01*
X034401Y033906D02*
X034401Y034506D01*
X031401Y034506D02*
X031401Y033906D01*
X030401Y033906D02*
X030401Y034506D01*
X029401Y034506D02*
X029401Y033906D01*
X028401Y033906D02*
X028401Y034506D01*
X027401Y034506D02*
X027401Y033906D01*
X026401Y033906D02*
X026401Y034506D01*
X025401Y034506D02*
X025401Y033906D01*
X024401Y033906D02*
X024401Y034506D01*
X023401Y034506D02*
X023401Y033906D01*
X022401Y033906D02*
X022401Y034506D01*
X021401Y034506D02*
X021401Y033906D01*
X020401Y033906D02*
X020401Y034506D01*
X019401Y034506D02*
X019401Y033906D01*
X006801Y035306D02*
X006801Y035906D01*
X005801Y035906D02*
X005801Y035306D01*
X004801Y035306D02*
X004801Y035906D01*
X003801Y035906D02*
X003801Y035306D01*
X002801Y035306D02*
X002801Y035906D01*
X001801Y035906D02*
X001801Y035306D01*
D12*
X021301Y031106D03*
X027501Y031106D03*
X027501Y009106D03*
X021301Y009106D03*
D13*
X008101Y010106D03*
X008101Y016106D03*
D14*
X005683Y016726D03*
X005683Y015072D03*
X005683Y013419D03*
X005683Y011765D03*
X005683Y010112D03*
X003518Y010112D03*
X003518Y011765D03*
X003518Y013419D03*
X003518Y015072D03*
X003518Y016726D03*
X003518Y018380D03*
X003518Y020033D03*
X003518Y021687D03*
X003518Y023340D03*
X003518Y024994D03*
X003518Y026647D03*
X003518Y028301D03*
X005683Y028301D03*
X005683Y026647D03*
X005683Y024994D03*
X005683Y023340D03*
X005683Y021687D03*
X005683Y020033D03*
X005683Y018380D03*
D15*
X005502Y008261D03*
X005502Y030151D03*
D16*
X010404Y022906D02*
X010998Y022906D01*
X010998Y021906D02*
X010404Y021906D01*
X010404Y020906D02*
X010998Y020906D01*
X022401Y036409D02*
X022401Y037003D01*
X023401Y037003D02*
X023401Y036409D01*
D17*
X017801Y021206D03*
X015601Y021206D03*
X015601Y017206D03*
X017801Y017206D03*
X011001Y015806D03*
X011001Y010806D03*
D18*
X008901Y027106D03*
X031501Y013606D03*
D19*
X033501Y013606D03*
X010901Y027106D03*
D20*
X013601Y026856D03*
X013601Y027856D03*
X013601Y025856D03*
X013601Y024856D03*
X013601Y023856D03*
X013601Y022856D03*
X013601Y021856D03*
X013601Y020856D03*
X013601Y019306D03*
X013601Y018306D03*
X013601Y017306D03*
X013601Y016306D03*
X013601Y015306D03*
X013601Y014306D03*
X013601Y013306D03*
X013601Y012306D03*
X032601Y015906D03*
X032601Y016906D03*
X032601Y017906D03*
X032601Y018906D03*
X032601Y019906D03*
X032601Y020906D03*
X032601Y022906D03*
X032601Y023906D03*
X032601Y024906D03*
X032601Y025906D03*
X032601Y026906D03*
X032601Y027906D03*
D21*
X003231Y031206D02*
X002571Y031206D01*
X002571Y032206D02*
X003231Y032206D01*
X003231Y033206D02*
X002571Y033206D01*
D22*
X008801Y033106D03*
X008801Y034206D03*
X010701Y029206D03*
D23*
X012701Y030106D03*
X014301Y027306D03*
X014901Y026706D03*
X018501Y031206D03*
X018101Y031606D03*
X018601Y032306D03*
X017901Y034706D03*
X019801Y028706D03*
X019801Y027806D03*
X023901Y028106D03*
X019801Y023006D03*
X019801Y022206D03*
X018701Y019706D03*
X015601Y015506D03*
X030901Y022206D03*
X031401Y021706D03*
X032201Y031806D03*
X008501Y037406D03*
X006001Y034406D03*
D24*
X014601Y034106D03*
X014601Y034806D03*
X014601Y034806D03*
X015401Y034806D03*
X015401Y034106D03*
X015401Y033306D03*
X015401Y032506D03*
X014601Y032506D03*
X014601Y033306D03*
M02*
