G75*
G70*
%OFA0B0*%
%FSLAX24Y24*%
%IPPOS*%
%LPD*%
%AMOC8*
5,1,8,0,0,1.08239X$1,22.5*
%
%ADD10C,0.1340*%
%ADD11C,0.0680*%
%ADD12R,0.0674X0.0674*%
%ADD13OC8,0.0680*%
%ADD14R,0.0907X0.0907*%
%ADD15C,0.1261*%
%ADD16C,0.0674*%
%ADD17OC8,0.0600*%
%ADD18R,0.0867X0.0280*%
%ADD19R,0.0866X0.0276*%
%ADD20C,0.0315*%
%ADD21R,0.0474X0.0513*%
%ADD22C,0.1080*%
%ADD23OC8,0.1080*%
%ADD24OC8,0.0740*%
%ADD25R,0.0316X0.0946*%
%ADD26C,0.0740*%
%ADD27C,0.0966*%
%ADD28C,0.0480*%
%ADD29OC8,0.0476*%
D10*
X013619Y008910D03*
X001101Y020206D03*
X030619Y028910D03*
X032619Y008410D03*
D11*
X032401Y033906D02*
X032401Y034506D01*
X033401Y034506D02*
X033401Y033906D01*
X034401Y033906D02*
X034401Y034506D01*
X031401Y034506D02*
X031401Y033906D01*
X030401Y033906D02*
X030401Y034506D01*
X029401Y034506D02*
X029401Y033906D01*
X028401Y033906D02*
X028401Y034506D01*
X027401Y034506D02*
X027401Y033906D01*
X026401Y033906D02*
X026401Y034506D01*
X025401Y034506D02*
X025401Y033906D01*
X024401Y033906D02*
X024401Y034506D01*
X023401Y034506D02*
X023401Y033906D01*
X022401Y033906D02*
X022401Y034506D01*
X021401Y034506D02*
X021401Y033906D01*
X020401Y033906D02*
X020401Y034506D01*
X019401Y034506D02*
X019401Y033906D01*
X006801Y035306D02*
X006801Y035906D01*
X005801Y035906D02*
X005801Y035306D01*
X004801Y035306D02*
X004801Y035906D01*
X003801Y035906D02*
X003801Y035306D01*
X002801Y035306D02*
X002801Y035906D01*
X001801Y035906D02*
X001801Y035306D01*
D12*
X021301Y031106D03*
X027501Y031106D03*
X027501Y009106D03*
X021301Y009106D03*
D13*
X008101Y010106D03*
X008101Y016106D03*
D14*
X005683Y016726D03*
X005683Y015072D03*
X005683Y013419D03*
X005683Y011765D03*
X005683Y010112D03*
X003518Y010112D03*
X003518Y011765D03*
X003518Y013419D03*
X003518Y015072D03*
X003518Y016726D03*
X003518Y018380D03*
X003518Y020033D03*
X003518Y021687D03*
X003518Y023340D03*
X003518Y024994D03*
X003518Y026647D03*
X003518Y028301D03*
X005683Y028301D03*
X005683Y026647D03*
X005683Y024994D03*
X005683Y023340D03*
X005683Y021687D03*
X005683Y020033D03*
X005683Y018380D03*
D15*
X005502Y008261D03*
X005502Y030151D03*
D16*
X010404Y022906D02*
X010998Y022906D01*
X010998Y021906D02*
X010404Y021906D01*
X010404Y020906D02*
X010998Y020906D01*
X022401Y036409D02*
X022401Y037003D01*
X023401Y037003D02*
X023401Y036409D01*
D17*
X017801Y021206D03*
X015601Y021206D03*
X015601Y017206D03*
X017801Y017206D03*
X011001Y015806D03*
X011001Y010806D03*
D18*
X010057Y031344D03*
X010057Y031738D03*
X010057Y032131D03*
X010057Y032525D03*
X010057Y033313D03*
X010057Y034100D03*
X010057Y034887D03*
X010057Y035281D03*
X010057Y035675D03*
X010057Y036069D03*
X017144Y036069D03*
X017144Y035281D03*
X017144Y034887D03*
X017144Y034494D03*
X017144Y034100D03*
X017144Y033706D03*
X017144Y033313D03*
X017144Y032919D03*
X017144Y032525D03*
X017144Y032131D03*
X017144Y031344D03*
D19*
X017142Y030950D03*
X017142Y031738D03*
X017142Y035675D03*
X017142Y036462D03*
X010059Y036462D03*
X010059Y034494D03*
X010059Y033706D03*
X010059Y032919D03*
X010059Y030950D03*
D20*
X011435Y031344D03*
X011435Y032131D03*
X012223Y032131D03*
X012223Y031344D03*
X013010Y031344D03*
X013010Y032131D03*
X013010Y032919D03*
X012223Y032919D03*
X011435Y032919D03*
X011435Y034494D03*
X011435Y035281D03*
X011435Y036069D03*
X012223Y036069D03*
X013010Y036069D03*
X013010Y035281D03*
X012223Y035281D03*
X012223Y034494D03*
X013010Y034494D03*
X014191Y034494D03*
X014191Y035281D03*
X014979Y035281D03*
X015766Y035281D03*
X015766Y034494D03*
X014979Y034494D03*
X014979Y033706D03*
X014979Y032919D03*
X015766Y032919D03*
X015766Y033706D03*
X015766Y032131D03*
X014979Y032131D03*
X014191Y032131D03*
X014191Y032919D03*
X014191Y033706D03*
D21*
X018666Y032806D03*
X019335Y032806D03*
X019335Y031706D03*
X018666Y031706D03*
X015635Y027306D03*
X014966Y027306D03*
X014966Y026206D03*
X015635Y026206D03*
X015635Y025106D03*
X014966Y025106D03*
X014966Y024006D03*
X015635Y024006D03*
D22*
X008901Y027106D03*
X031501Y013606D03*
D23*
X033501Y013606D03*
X010901Y027106D03*
D24*
X013601Y026856D03*
X013601Y027856D03*
X013601Y025856D03*
X013601Y024856D03*
X013601Y023856D03*
X013601Y022856D03*
X013601Y021856D03*
X013601Y020856D03*
X013601Y019306D03*
X013601Y018306D03*
X013601Y017306D03*
X013601Y016306D03*
X013601Y015306D03*
X013601Y014306D03*
X013601Y013306D03*
X013601Y012306D03*
X032601Y015906D03*
X032601Y016906D03*
X032601Y017906D03*
X032601Y018906D03*
X032601Y019906D03*
X032601Y020906D03*
X032601Y022906D03*
X032601Y023906D03*
X032601Y024906D03*
X032601Y025906D03*
X032601Y026906D03*
X032601Y027906D03*
D25*
X017551Y015430D03*
X017051Y015430D03*
X016551Y015430D03*
X016051Y015430D03*
X016051Y013383D03*
X016551Y013383D03*
X017051Y013383D03*
X017551Y013383D03*
D26*
X003231Y031206D02*
X002571Y031206D01*
X002571Y032206D02*
X003231Y032206D01*
X003231Y033206D02*
X002571Y033206D01*
D27*
X008801Y033106D03*
X008801Y034206D03*
X010701Y029206D03*
D28*
X012701Y030106D03*
X014301Y027306D03*
X014901Y026706D03*
X018501Y031206D03*
X018101Y031606D03*
X018601Y032306D03*
X017901Y034706D03*
X019801Y028706D03*
X019801Y027806D03*
X023901Y028106D03*
X019801Y023006D03*
X019801Y022206D03*
X018701Y019706D03*
X015601Y015506D03*
X030901Y022206D03*
X031401Y021706D03*
X032201Y031806D03*
X008501Y037406D03*
X006001Y034406D03*
D29*
X014601Y034106D03*
X014601Y034806D03*
X014601Y034806D03*
X015401Y034806D03*
X015401Y034106D03*
X015401Y033306D03*
X015401Y032506D03*
X014601Y032506D03*
X014601Y033306D03*
M02*
