%
M48
M72
T01C0.0236
T02C0.0240
T03C0.0320
T04C0.0394
T05C0.0400
T06C0.0440
T07C0.0551
T08C0.0591
T09C0.1181
T10C0.1260
%
T01
X14601Y32506
X15401Y32506
X15401Y33306
X14601Y33306
X14601Y34106
X14601Y34806
X14601Y34806
X15401Y34806
X15401Y34106
T02
X17901Y34706
X18601Y32306
X18101Y31606
X18501Y31206
X19801Y28706
X19801Y27806
X23901Y28106
X19801Y23006
X19801Y22206
X18701Y19706
X15601Y15506
X14901Y26706
X14301Y27306
X12701Y30106
X6001Y34406
X8501Y37406
X30901Y22206
X31401Y21706
X32201Y31806
T03
X17801Y21206
X15601Y21206
X15601Y17206
X17801Y17206
X11001Y15806
X11001Y10806
T04
X13601Y12306
X13601Y13306
X13601Y14306
X13601Y15306
X13601Y16306
X13601Y17306
X13601Y18306
X13601Y19306
X13601Y20856
X13601Y21856
X13601Y22856
X13601Y23856
X13601Y24856
X13601Y25856
X13601Y26856
X13601Y27856
X10701Y22906
X10701Y21906
X10701Y20906
X21301Y31106
X22401Y36706
X23401Y36706
X27501Y31106
X32601Y27906
X32601Y26906
X32601Y25906
X32601Y24906
X32601Y23906
X32601Y22906
X32601Y20906
X32601Y19906
X32601Y18906
X32601Y17906
X32601Y16906
X32601Y15906
X27501Y9106
X21301Y9106
T05
X31501Y13606
X33501Y13606
X33401Y34206
X32401Y34206
X31401Y34206
X30401Y34206
X29401Y34206
X28401Y34206
X27401Y34206
X26401Y34206
X25401Y34206
X24401Y34206
X23401Y34206
X22401Y34206
X21401Y34206
X20401Y34206
X19401Y34206
X10901Y27106
X8901Y27106
X6801Y35606
X5801Y35606
X4801Y35606
X3801Y35606
X2801Y35606
X1801Y35606
X8101Y16106
X8101Y10106
X34401Y34206
T06
X2901Y33206
X2901Y32206
X2901Y31206
T07
X3518Y28301
X3518Y26647
X3518Y24994
X3518Y23340
X3518Y21687
X3518Y20033
X3518Y18380
X3518Y16726
X3518Y15072
X3518Y13419
X3518Y11765
X3518Y10112
X5683Y10112
X5683Y11765
X5683Y13419
X5683Y15072
X5683Y16726
X5683Y18380
X5683Y20033
X5683Y21687
X5683Y23340
X5683Y24994
X5683Y26647
X5683Y28301
T08
X8801Y33106
X8801Y34206
X10701Y29206
T09
X5502Y8261
X5502Y30151
T10
X1101Y20206
X13619Y8910
X30619Y28910
X32619Y8410
M30
